<?xml version="1.0" encoding="UTF-8"?>
<svg id="Layer_1" data-name="Layer 1" xmlns="http://www.w3.org/2000/svg" xmlns:xlink="http://www.w3.org/1999/xlink" viewBox="0 0 149.97 183.07">
  <defs>
    <style>
      .cls-1 {
        fill: #5dc1ed;
      }

      .cls-1, .cls-2, .cls-3, .cls-4, .cls-5 {
        stroke-width: 0px;
      }

      .cls-2 {
        fill: #b2e4f9;
      }

      .cls-6 {
        stroke: #c5edff;
        stroke-linecap: round;
        stroke-linejoin: round;
        stroke-width: 2px;
      }

      .cls-6, .cls-7, .cls-8 {
        fill: none;
      }

      .cls-3 {
        fill: #7dcaf4;
      }

      .cls-4 {
        fill: url(#radial-gradient);
      }

      .cls-7 {
        stroke-dasharray: 0 0 2.76 2.76;
      }

      .cls-7, .cls-8 {
        stroke: snow;
        stroke-miterlimit: 10;
        stroke-width: .56px;
      }

      .cls-5 {
        fill: #c5edff;
      }
    </style>
    <radialGradient id="radial-gradient" cx="73.67" cy="78.43" fx="73.67" fy="78.43" r="73.69" gradientUnits="userSpaceOnUse">
      <stop offset=".34" stop-color="#41413f"/>
      <stop offset=".49" stop-color="#393938"/>
      <stop offset=".7" stop-color="#262625"/>
      <stop offset=".95" stop-color="#060606"/>
      <stop offset="1" stop-color="#000"/>
    </radialGradient>
  </defs>
  <path class="cls-1" d="M95.61,181.4l-16.74-4.21c-3.24-.82-6.7-.82-9.94,0l-16.74,4.21c-1.77.45-3.56-.67-3.56-2.22v-56.4h50.53v56.4c0,1.55-1.79,2.67-3.56,2.22Z"/>
  <g>
    <line class="cls-8" x1="96.52" y1="123.1" x2="96.52" y2="124.38"/>
    <path class="cls-7" d="M96.52,126.9v52.27c0,.09-.11.1-.11.1-.01,0-.02,0-.04,0l-16.74-4.21c-1.86-.47-3.79-.71-5.73-.71s-3.87.24-5.73.71l-16.74,4.21s-.03,0-.04,0c-.03,0-.06-.02-.08-.03-.03-.02-.03-.04-.03-.07v-53.54"/>
    <line class="cls-8" x1="51.29" y1="124.38" x2="51.29" y2="123.1"/>
  </g>
  <polygon class="cls-4" points="33.66 16.43 39.69 17.14 42.28 11.66 48.16 13.17 51.46 8.08 57.08 10.36 61.04 5.76 66.3 8.76 70.83 4.73 75.65 8.41 80.68 5.02 84.97 9.31 90.4 6.62 94.08 11.44 99.82 9.5 102.82 14.77 108.78 13.61 111.05 19.23 117.1 18.87 118.6 24.75 124.65 25.2 125.35 31.23 131.29 32.48 131.18 38.55 136.9 40.58 135.98 46.58 141.38 49.35 139.67 55.18 144.65 58.65 142.18 64.19 146.65 68.29 143.47 73.46 147.35 78.12 143.51 82.81 146.73 87.95 142.3 92.09 144.81 97.61 139.86 101.13 141.61 106.93 136.25 109.76 137.21 115.74 131.51 117.83 131.67 123.89 125.74 125.19 125.09 131.22 119.04 131.72 117.59 137.61 111.53 137.31 109.31 142.95 103.35 141.84 100.39 147.13 94.63 145.24 90.99 150.09 85.54 147.44 81.29 151.77 76.23 148.42 71.44 152.14 66.88 148.14 61.64 151.19 57.65 146.62 52.04 148.95 48.7 143.89 42.84 145.45 40.19 139.99 34.18 140.75 32.29 134.98 26.22 134.94 25.12 128.97 19.11 128.12 18.81 122.06 12.97 120.41 13.48 114.37 7.92 111.96 9.23 106.03 4.04 102.9 6.12 97.21 1.39 93.41 4.22 88.05 .04 83.65 3.56 78.71 0 73.8 4.15 69.37 1.27 64.03 5.97 60.2 3.84 54.52 9 51.35 7.64 45.44 13.19 42.98 12.63 36.94 18.45 35.24 18.7 29.18 24.7 28.28 25.76 22.3 31.82 22.21 33.66 16.43"/>
  <g>
    <line class="cls-6" x1="43.2" y1="31.04" x2="43.2" y2="38.29"/>
    <line class="cls-6" x1="39.58" y1="34.66" x2="46.83" y2="34.66"/>
  </g>
  <g>
    <line class="cls-6" x1="106.57" y1="42.97" x2="101.44" y2="48.1"/>
    <line class="cls-6" x1="101.44" y1="42.97" x2="106.57" y2="48.1"/>
  </g>
  <circle class="cls-6" cx="74.34" cy="25.54" r="4.5"/>
  <polygon class="cls-2" points="74.41 115.11 110.8 71.07 38.02 71.07 74.41 115.11"/>
  <polygon class="cls-1" points="55.73 52.53 38.02 71.07 110.8 71.07 93.09 52.53 55.73 52.53"/>
  <polygon class="cls-3" points="38.02 71.07 74.41 115.11 58.72 71.07 38.02 71.07"/>
  <polygon class="cls-2" points="38.02 71.07 58.72 71.07 55.73 52.53 38.02 71.07"/>
  <polygon class="cls-1" points="111.56 71.78 73.51 114.4 90.88 70.99 111.56 71.78"/>
  <polygon class="cls-3" points="110.73 71.07 90.04 71.07 93.02 52.53 110.73 71.07"/>
  <polygon class="cls-3" points="58.72 71.07 90.04 71.07 74.41 52.53 58.72 71.07"/>
  <polygon class="cls-5" points="55.73 52.53 58.72 71.07 74.41 52.53 55.73 52.53"/>
</svg>