<?xml version="1.0" encoding="UTF-8"?>
<svg id="Layer_2" data-name="Layer 2" xmlns="http://www.w3.org/2000/svg" xmlns:xlink="http://www.w3.org/1999/xlink" viewBox="0 0 152.16 182.27">
  <defs>
    <style>
      .cls-1 {
        stroke: #f9d746;
        stroke-linecap: round;
        stroke-linejoin: round;
        stroke-width: 2px;
      }

      .cls-1, .cls-2, .cls-3 {
        fill: none;
      }

      .cls-4 {
        fill: #f7a500;
      }

      .cls-4, .cls-5, .cls-6, .cls-7 {
        stroke-width: 0px;
      }

      .cls-5 {
        fill: #f9d746;
      }

      .cls-6 {
        fill: url(#radial-gradient);
      }

      .cls-2 {
        stroke-dasharray: 0 0 2.76 2.76;
      }

      .cls-2, .cls-3 {
        stroke: snow;
        stroke-miterlimit: 10;
        stroke-width: .56px;
      }

      .cls-7 {
        fill: #ffb612;
      }
    </style>
    <radialGradient id="radial-gradient" cx="76.58" cy="76.91" fx="76.58" fy="76.91" r="73.69" gradientUnits="userSpaceOnUse">
      <stop offset=".34" stop-color="#41413f"/>
      <stop offset=".49" stop-color="#393938"/>
      <stop offset=".7" stop-color="#262625"/>
      <stop offset=".95" stop-color="#060606"/>
      <stop offset="1" stop-color="#000"/>
    </radialGradient>
  </defs>
  <path class="cls-7" d="M98.28,179.87l-16.74-4.21c-3.24-.82-6.7-.82-9.94,0l-16.74,4.21c-1.77.45-3.56-.67-3.56-2.22v-56.4h50.53v56.4c0,1.55-1.79,2.67-3.56,2.22Z"/>
  <g>
    <line class="cls-3" x1="99.19" y1="121.57" x2="99.19" y2="122.85"/>
    <path class="cls-2" d="M99.19,125.38v52.27c0,.09-.11.1-.11.1-.01,0-.02,0-.04,0l-16.74-4.21c-1.86-.47-3.79-.71-5.73-.71s-3.87.24-5.73.71l-16.74,4.21s-.03,0-.04,0c-.03,0-.06-.02-.08-.03-.03-.02-.03-.04-.03-.07v-53.54"/>
    <line class="cls-3" x1="53.96" y1="122.85" x2="53.96" y2="121.57"/>
  </g>
  <polygon class="cls-6" points="36.57 14.9 42.59 15.61 45.19 10.13 51.06 11.64 54.37 6.55 59.99 8.83 63.94 4.23 69.21 7.24 73.74 3.2 78.56 6.88 83.58 3.49 87.87 7.78 93.3 5.09 96.98 9.91 102.73 7.97 105.73 13.24 111.68 12.08 113.95 17.7 120 17.35 121.51 23.22 127.55 23.68 128.26 29.7 134.19 30.95 134.09 37.02 139.8 39.05 138.89 45.05 144.28 47.83 142.58 53.65 147.55 57.12 145.09 62.66 149.55 66.77 146.37 71.93 150.25 76.59 146.41 81.29 149.63 86.42 145.2 90.56 147.71 96.09 142.77 99.6 144.52 105.41 139.15 108.23 140.11 114.22 134.41 116.3 134.57 122.36 128.65 123.67 127.99 129.7 121.95 130.2 120.49 136.09 114.44 135.78 112.21 141.42 106.25 140.31 103.29 145.61 97.53 143.71 93.9 148.56 88.44 145.91 84.19 150.24 79.13 146.89 74.34 150.61 69.78 146.62 64.54 149.67 60.55 145.1 54.95 147.42 51.6 142.36 45.74 143.92 43.1 138.46 37.08 139.22 35.19 133.46 29.12 133.41 28.02 127.44 22.02 126.59 21.72 120.53 15.88 118.88 16.39 112.84 10.82 110.43 12.13 104.51 6.94 101.37 9.03 95.68 4.3 91.88 7.13 86.52 2.94 82.13 6.46 77.19 2.9 72.27 7.05 67.85 4.18 62.51 8.88 58.67 6.74 52.99 11.91 49.82 10.55 43.91 16.09 41.45 15.53 35.41 21.36 33.71 21.61 27.65 27.6 26.75 28.66 20.78 34.73 20.68 36.57 14.9"/>
  <polygon class="cls-5" points="76.58 48.43 52.55 48.43 56.24 76.53 76.58 88.51 76.58 48.43"/>
  <polygon class="cls-7" points="76.58 48.43 100.6 48.43 96.91 76.53 76.58 88.51 76.58 48.43"/>
  <polygon class="cls-7" points="56.24 76.53 76.58 48.43 76.58 88.51 56.24 76.53"/>
  <polygon class="cls-5" points="96.91 76.53 76.58 48.43 76.58 88.51 96.91 76.53"/>
  <rect class="cls-7" x="71.48" y="90.62" width="10.2" height="10.2" transform="translate(90.11 -26.11) rotate(45)"/>
  <polygon class="cls-7" points="66.02 119.04 76.58 119.04 76.58 100.76 66.02 119.04"/>
  <polygon class="cls-4" points="76.58 100.76 76.58 119.04 87.13 119.04 76.58 100.76"/>
  <polygon class="cls-4" points="52.55 48.43 37.78 48.43 40.07 68.47 56.24 76.53 55.36 69.7 44.69 64.96 43.23 52.47 53.11 52.67 52.55 48.43"/>
  <polygon class="cls-4" points="100.6 48.43 115.37 48.43 113.08 68.47 96.91 76.53 97.79 69.7 108.46 64.96 109.92 52.47 100.05 52.67 100.6 48.43"/>
  <g>
    <line class="cls-1" x1="52.55" y1="29.51" x2="52.55" y2="36.76"/>
    <line class="cls-1" x1="48.93" y1="33.14" x2="56.18" y2="33.14"/>
  </g>
  <g>
    <line class="cls-1" x1="99.95" y1="37.82" x2="105.08" y2="42.95"/>
    <line class="cls-1" x1="99.95" y1="42.95" x2="105.08" y2="37.82"/>
  </g>
  <circle class="cls-1" cx="87.13" cy="24.01" r="4.5"/>
</svg>