<?xml version="1.0" encoding="UTF-8"?>
<svg id="Layer_2" data-name="Layer 2" xmlns="http://www.w3.org/2000/svg" xmlns:xlink="http://www.w3.org/1999/xlink" viewBox="0 0 149.12 187.38">
  <defs>
    <style>
      .cls-1 {
        stroke-dasharray: 0 0 2.76 2.76;
      }

      .cls-1, .cls-2 {
        fill: none;
        stroke: #2c2b2b;
        stroke-miterlimit: 10;
        stroke-width: .56px;
      }

      .cls-3 {
        fill: url(#radial-gradient);
      }

      .cls-3, .cls-4 {
        stroke-width: 0px;
      }

      .cls-4 {
        fill: #3b3b3a;
      }
    </style>
    <radialGradient id="radial-gradient" cx="75.45" cy="76.65" fx="75.45" fy="76.65" r="73.69" gradientUnits="userSpaceOnUse">
      <stop offset=".34" stop-color="#41413f"/>
      <stop offset=".49" stop-color="#393938"/>
      <stop offset=".7" stop-color="#262625"/>
      <stop offset=".95" stop-color="#060606"/>
      <stop offset="1" stop-color="#000"/>
    </radialGradient>
  </defs>
  <g>
    <path class="cls-4" d="M97.16,187.27l-16.74-4.21c-3.24-.82-6.7-.82-9.94,0l-16.74,4.21c-1.77.45-3.56-.67-3.56-2.22v-56.4h50.53v56.4c0,1.55-1.79,2.67-3.56,2.22Z"/>
    <g>
      <line class="cls-2" x1="98.06" y1="128.97" x2="98.06" y2="130.25"/>
      <path class="cls-1" d="M98.06,132.77v52.27c0,.09-.11.1-.11.1-.01,0-.02,0-.04,0l-16.74-4.21c-1.86-.47-3.79-.71-5.73-.71s-3.87.24-5.73.71l-16.74,4.21s-.03,0-.04,0c-.03,0-.06-.02-.08-.03-.03-.02-.03-.04-.03-.07v-53.54"/>
      <line class="cls-2" x1="52.83" y1="130.25" x2="52.83" y2="128.97"/>
    </g>
  </g>
  <polygon class="cls-3" points="35.44 14.65 41.46 15.36 44.06 9.88 49.93 11.39 53.24 6.3 58.86 8.58 62.81 3.98 68.08 6.98 72.61 2.95 77.43 6.63 82.46 3.24 86.74 7.53 92.18 4.84 95.85 9.66 101.6 7.72 104.6 12.99 110.55 11.83 112.82 17.45 118.88 17.09 120.38 22.97 126.43 23.42 127.13 29.45 133.06 30.7 132.96 36.77 138.67 38.8 137.76 44.8 143.15 47.58 141.45 53.4 146.42 56.87 143.96 62.41 148.42 66.51 145.24 71.68 149.12 76.34 145.28 81.03 148.5 86.17 144.07 90.31 146.58 95.83 141.64 99.35 143.39 105.15 138.02 107.98 138.98 113.97 133.28 116.05 133.44 122.11 127.52 123.41 126.86 129.44 120.82 129.95 119.37 135.83 113.31 135.53 111.08 141.17 105.12 140.06 102.16 145.35 96.4 143.46 92.77 148.31 87.31 145.66 83.06 149.99 78.01 146.64 73.22 150.36 68.65 146.36 63.41 149.41 59.42 144.85 53.82 147.17 50.47 142.11 44.61 143.67 41.97 138.21 35.95 138.97 34.06 133.2 28 133.16 26.89 127.19 20.89 126.34 20.59 120.28 14.75 118.63 15.26 112.59 9.69 110.18 11.01 104.25 5.81 101.12 7.9 95.43 3.17 91.63 6 86.27 1.82 81.87 5.33 76.93 1.77 72.02 5.92 67.6 3.05 62.25 7.75 58.42 5.61 52.74 10.78 49.57 9.42 43.66 14.97 41.2 14.41 35.16 20.23 33.46 20.48 27.4 26.48 26.5 27.53 20.53 33.6 20.43 35.44 14.65"/>
</svg>