<?xml version="1.0" encoding="UTF-8"?>
<svg id="Layer_1" data-name="Layer 1" xmlns="http://www.w3.org/2000/svg" xmlns:xlink="http://www.w3.org/1999/xlink" viewBox="0 0 159.48 178.1">
  <defs>
    <style>
      .cls-1 {
        fill: #eff2f4;
      }

      .cls-1, .cls-2, .cls-3, .cls-4 {
        stroke-width: 0px;
      }

      .cls-2 {
        fill: #dfe2e5;
      }

      .cls-3 {
        fill: #fff;
      }

      .cls-5 {
        stroke: #fff;
        stroke-linecap: round;
        stroke-linejoin: round;
        stroke-width: 2px;
      }

      .cls-5, .cls-6, .cls-7 {
        fill: none;
      }

      .cls-4 {
        fill: url(#radial-gradient);
      }

      .cls-6 {
        stroke-dasharray: 0 0 2.76 2.76;
      }

      .cls-6, .cls-7 {
        stroke: snow;
        stroke-miterlimit: 10;
        stroke-width: .56px;
      }
    </style>
    <radialGradient id="radial-gradient" cx="79.59" cy="75.21" fx="79.59" fy="75.21" r="73.69" gradientUnits="userSpaceOnUse">
      <stop offset=".34" stop-color="#41413f"/>
      <stop offset=".49" stop-color="#393938"/>
      <stop offset=".7" stop-color="#262625"/>
      <stop offset=".95" stop-color="#060606"/>
      <stop offset="1" stop-color="#000"/>
    </radialGradient>
  </defs>
  <g>
    <path class="cls-2" d="M101.3,178.17l-16.74-4.21c-3.24-.82-6.7-.82-9.94,0l-16.74,4.21c-1.77.45-3.56-.67-3.56-2.22v-56.4h50.53v56.4c0,1.55-1.79,2.67-3.56,2.22Z"/>
    <g>
      <line class="cls-7" x1="102.21" y1="119.87" x2="102.21" y2="121.15"/>
      <path class="cls-6" d="M102.21,123.67v52.27c0,.09-.11.1-.11.1-.01,0-.02,0-.04,0l-16.74-4.21c-1.86-.47-3.79-.71-5.73-.71s-3.87.24-5.73.71l-16.74,4.21s-.03,0-.04,0c-.03,0-.06-.02-.08-.03-.03-.02-.03-.04-.03-.07v-53.54"/>
      <line class="cls-7" x1="56.98" y1="121.15" x2="56.98" y2="119.87"/>
    </g>
  </g>
  <polygon class="cls-4" points="39.58 13.2 45.61 13.91 48.2 8.43 54.08 9.94 57.38 4.85 63 7.13 66.95 2.53 72.22 5.53 76.75 1.5 81.57 5.18 86.6 1.79 90.89 6.08 96.32 3.39 100 8.21 105.74 6.27 108.74 11.54 114.69 10.38 116.96 16 123.02 15.64 124.52 21.52 130.57 21.97 131.27 28 137.21 29.25 137.1 35.32 142.82 37.35 141.9 43.35 147.3 46.13 145.59 51.95 150.57 55.42 148.1 60.96 152.57 65.06 149.39 70.23 153.27 74.89 149.42 79.59 152.65 84.72 148.22 88.86 150.73 94.39 145.78 97.9 147.53 103.7 142.16 106.53 143.13 112.52 137.43 114.6 137.58 120.66 131.66 121.96 131.01 127.99 124.96 128.5 123.51 134.39 117.45 134.08 115.23 139.72 109.26 138.61 106.31 143.9 100.55 142.01 96.91 146.86 91.45 144.21 87.2 148.54 82.15 145.19 77.36 148.91 72.8 144.91 67.55 147.96 63.56 143.4 57.96 145.72 54.62 140.66 48.75 142.22 46.11 136.76 40.1 137.52 38.21 131.76 32.14 131.71 31.04 125.74 25.03 124.89 24.73 118.83 18.89 117.18 19.4 111.14 13.84 108.73 15.15 102.8 9.95 99.67 12.04 93.98 7.31 90.18 10.14 84.82 5.96 80.42 9.48 75.48 5.92 70.57 10.06 66.15 7.19 60.8 11.89 56.97 9.76 51.29 14.92 48.12 13.56 42.21 19.11 39.75 18.55 33.71 24.37 32.01 24.62 25.95 30.62 25.05 31.68 19.08 37.74 18.98 39.58 13.2"/>
  <g>
    <line class="cls-5" x1="107.63" y1="35.06" x2="107.63" y2="42.31"/>
    <line class="cls-5" x1="104.01" y1="38.68" x2="111.26" y2="38.68"/>
  </g>
  <g>
    <line class="cls-5" x1="46.92" y1="43.37" x2="52.04" y2="48.5"/>
    <line class="cls-5" x1="46.92" y1="48.5" x2="52.04" y2="43.37"/>
  </g>
  <circle class="cls-5" cx="67.62" cy="26.81" r="4.5"/>
  <polygon class="cls-1" points="49.48 79.13 109.7 79.13 106.56 98.85 52.62 98.85 49.48 79.13"/>
  <polygon class="cls-2" points="59.7 79.13 61.66 58.47 75.55 79.13 59.7 79.13"/>
  <polygon class="cls-2" points="99.36 79.13 97.39 58.47 83.51 79.13 99.36 79.13"/>
  <polygon class="cls-3" points="49.48 79.13 42.6 55.79 67.75 79.13 49.48 79.13"/>
  <polygon class="cls-3" points="109.7 79.13 116.58 55.79 91.43 79.13 109.7 79.13"/>
  <polygon class="cls-3" points="67.75 79.13 79.59 51.86 91.43 79.13 67.75 79.13"/>
  <polygon class="cls-2" points="67.75 79.13 79.59 98.85 91.43 79.13 67.75 79.13"/>
</svg>