<?xml version="1.0" encoding="UTF-8"?>
<svg id="Layer_1" data-name="Layer 1" xmlns="http://www.w3.org/2000/svg" xmlns:xlink="http://www.w3.org/1999/xlink" viewBox="0 0 151.48 191.18">
  <defs>
    <style>
      .cls-1 {
        fill: #ff7900;
      }

      .cls-1, .cls-2, .cls-3 {
        stroke-width: 0px;
      }

      .cls-2 {
        fill: #ffa227;
      }

      .cls-3 {
        fill: url(#radial-gradient);
      }

      .cls-4 {
        stroke: #ffa227;
        stroke-linecap: round;
        stroke-linejoin: round;
        stroke-width: 2px;
      }

      .cls-4, .cls-5, .cls-6 {
        fill: none;
      }

      .cls-5 {
        stroke-dasharray: 0 0 2.76 2.76;
      }

      .cls-5, .cls-6 {
        stroke: snow;
        stroke-miterlimit: 10;
        stroke-width: .56px;
      }
    </style>
    <radialGradient id="radial-gradient" cx="77.81" cy="78.69" fx="77.81" fy="78.69" r="73.69" gradientUnits="userSpaceOnUse">
      <stop offset=".34" stop-color="#41413f"/>
      <stop offset=".49" stop-color="#393938"/>
      <stop offset=".7" stop-color="#262625"/>
      <stop offset=".95" stop-color="#060606"/>
      <stop offset="1" stop-color="#000"/>
    </radialGradient>
  </defs>
  <path class="cls-1" d="M99.52,189.31l-16.74-4.21c-3.24-.82-6.7-.82-9.94,0l-16.74,4.21c-1.77.45-3.56-.67-3.56-2.22v-56.4h50.53v56.4c0,1.55-1.79,2.67-3.56,2.22Z"/>
  <g>
    <line class="cls-6" x1="100.42" y1="131" x2="100.42" y2="132.28"/>
    <path class="cls-5" d="M100.42,134.81v52.27c0,.09-.11.1-.11.1-.01,0-.02,0-.04,0l-16.74-4.21c-1.86-.47-3.79-.71-5.73-.71s-3.87.24-5.73.71l-16.74,4.21s-.03,0-.04,0c-.03,0-.06-.02-.08-.03-.03-.02-.03-.04-.03-.07v-53.54"/>
    <line class="cls-6" x1="55.19" y1="132.28" x2="55.19" y2="131"/>
  </g>
  <polygon class="cls-3" points="37.8 16.68 43.82 17.4 46.42 11.91 52.29 13.42 55.6 8.34 61.22 10.61 65.17 6.01 70.44 9.02 74.97 4.99 79.79 8.67 84.81 5.27 89.1 9.57 94.54 6.87 98.21 11.7 103.96 9.75 106.96 15.02 112.91 13.86 115.18 19.49 121.24 19.13 122.74 25.01 128.78 25.46 129.49 31.48 135.42 32.74 135.32 38.8 141.03 40.84 140.12 46.83 145.51 49.61 143.81 55.43 148.78 58.9 146.32 64.45 150.78 68.55 147.6 73.71 151.48 78.38 147.64 83.07 150.86 88.21 146.43 92.35 148.94 97.87 144 101.38 145.75 107.19 140.38 110.01 141.34 116 135.64 118.08 135.8 124.15 129.88 125.45 129.22 131.48 123.18 131.98 121.72 137.87 115.67 137.56 113.44 143.21 107.48 142.09 104.52 147.39 98.76 145.49 95.13 150.35 89.67 147.7 85.42 152.03 80.36 148.67 75.58 152.39 71.01 148.4 65.77 151.45 61.78 146.88 56.18 149.2 52.83 144.15 46.97 145.7 44.33 140.24 38.31 141 36.42 135.24 30.36 135.19 29.25 129.23 23.25 128.37 22.95 122.32 17.11 120.67 17.62 114.62 12.05 112.21 13.36 106.29 8.17 103.16 10.26 97.46 5.53 93.67 8.36 88.3 4.17 83.91 7.69 78.97 4.13 74.06 8.28 69.63 5.41 64.29 10.11 60.45 7.97 54.78 13.14 51.6 11.78 45.69 17.32 43.23 16.76 37.19 22.59 35.5 22.84 29.44 28.84 28.53 29.89 22.56 35.96 22.46 37.8 16.68"/>
  <g>
    <line class="cls-4" x1="88.09" y1="30.15" x2="88.09" y2="37.4"/>
    <line class="cls-4" x1="84.46" y1="33.77" x2="91.71" y2="33.77"/>
  </g>
  <g>
    <line class="cls-4" x1="104.27" y1="51.35" x2="109.4" y2="56.47"/>
    <line class="cls-4" x1="104.27" y1="56.47" x2="109.4" y2="51.35"/>
  </g>
  <circle class="cls-4" cx="58.78" cy="44.65" r="4.5"/>
  <polygon class="cls-2" points="90.77 63.63 115.87 68.39 98.05 86.7 101.27 112.05 78.35 100.75 55.25 111.65 58.9 86.36 41.4 67.75 66.58 63.42 78.87 41.02 90.77 63.63"/>
  <polygon class="cls-1" points="78.87 41.02 66.58 63.42 78.63 78.69 78.87 41.02"/>
  <polygon class="cls-1" points="41.4 67.75 58.9 86.36 78.63 78.69 41.4 67.75"/>
  <polygon class="cls-1" points="55.25 111.65 78.35 100.75 78.63 78.69 55.25 111.65"/>
  <polygon class="cls-1" points="101.27 112.05 78.63 78.69 98.05 86.7 101.27 112.05"/>
  <polygon class="cls-1" points="90.77 63.63 78.63 78.69 115.87 68.39 90.77 63.63"/>
</svg>